<svg width="300" height="342" fill="none" xmlns="http://www.w3.org/2000/svg"><path d="M246 342H30v-10h206l54-54V30h10v258l-54 54z" fill="#ED534B" fill-opacity=".1"/><path d="M236 332H20v-10h206l54-54V20h10v258l-54 54z" fill="#ED534B" fill-opacity=".3"/><path d="M226 322H10v-10h206l54-54V10h10v258l-54 54z" fill="#ED534B" fill-opacity=".5"/><g filter="url(#filter0_b_29_689)"><path d="M270 0H0v312h216l54-54V0z" fill="url(#paint0_linear_29_689)"/></g><path d="M1.5 1.5h267v255.879L215.379 310.5H1.5V1.5z" stroke="#ED534B" stroke-width="3"/><path d="M266.379 259.5L217.5 308.379V259.5h48.879z" stroke="#ED534B" stroke-width="3"/><g filter="url(#filter1_b_29_689)"><path d="M15.5 37.5L0 44V0h270v43l-17.5 7L234 31l-30 17-14-12.5L171.5 48 137 32.5 90.5 48 82 39l-10 7-16-13.5L39.5 48l-24-10.5z" fill="url(#paint1_linear_29_689)"/><path d="M16.101 36.126l-.588-.258-.593.249L1.5 41.744V1.5h267v40.484l-15.625 6.25-17.8-18.28-.808-.83-1.007.571-29.063 16.47-13.198-11.784-.871-.778-.968.654-17.807 12.032-33.738-15.157-.534-.24-.555.185-45.593 15.197-7.843-8.304-.889-.942-1.061.743-9.055 6.338-15.118-12.755-1.02-.862-.974.915-15.779 14.822-23.093-10.103z" stroke="#ED534B" stroke-width="3"/></g><path fill-rule="evenodd" clip-rule="evenodd" d="M178.682 21.44l4.439-4.44L181 14.879l-4.439 4.439-4.44-4.44L170 17l4.439 4.44L170 25.878 172.121 28l4.44-4.44L181 28l2.121-2.121-4.439-4.44zM95.682 21.44l4.439-4.44L98 14.879l-4.44 4.439-4.439-4.44L87 17l4.44 4.44L87 25.878 89.121 28l4.44-4.44L98 28l2.121-2.121-4.439-4.44z" fill="#ED534B"/><defs><linearGradient id="paint0_linear_29_689" x1="135" y1="0" x2="135" y2="312" gradientUnits="userSpaceOnUse"><stop stop-color="#1A1A1A" stop-opacity=".5"/><stop offset="1" stop-color="#1A1A1A" stop-opacity=".25"/></linearGradient><linearGradient id="paint1_linear_29_689" x1="135" y1="0" x2="135" y2="50" gradientUnits="userSpaceOnUse"><stop stop-color="#1A1A1A" stop-opacity=".5"/><stop offset="1" stop-color="#1A1A1A" stop-opacity=".25"/></linearGradient><filter id="filter0_b_29_689" x="-35" y="-35" width="340" height="382" filterUnits="userSpaceOnUse" color-interpolation-filters="sRGB"><feFlood flood-opacity="0" result="BackgroundImageFix"/><feGaussianBlur in="BackgroundImage" stdDeviation="17.5"/><feComposite in2="SourceAlpha" operator="in" result="effect1_backgroundBlur_29_689"/><feBlend in="SourceGraphic" in2="effect1_backgroundBlur_29_689" result="shape"/></filter><filter id="filter1_b_29_689" x="-35" y="-35" width="340" height="120" filterUnits="userSpaceOnUse" color-interpolation-filters="sRGB"><feFlood flood-opacity="0" result="BackgroundImageFix"/><feGaussianBlur in="BackgroundImage" stdDeviation="17.5"/><feComposite in2="SourceAlpha" operator="in" result="effect1_backgroundBlur_29_689"/><feBlend in="SourceGraphic" in2="effect1_backgroundBlur_29_689" result="shape"/></filter></defs></svg>