<svg width="112" height="132" fill="none" xmlns="http://www.w3.org/2000/svg"><g filter="url(#filter0_f_29_733)"><path d="M79.867 48.753l-.608 2.425 1.68.42.984-1.424-2.056-1.421zm11.515-16.66l2.5-.03-.09-7.856-4.467 6.464 2.057 1.421zM63.31 50.376l-1.068-2.261 1.068 2.26zm-1.427.673l-2.149 1.278 1.161 1.953 2.056-.97-1.068-2.26zm-.806-1.356l2.15-1.277-2.15 1.277zM48.26 39.09l-2.5.028.02 1.732 1.628.59.852-2.35zm-.23-20.251l2.5-.028-.09-7.857-4.467 6.464 2.057 1.421zM34.682 38.15l.523 2.445.97-.208.563-.816-2.056-1.421zm-4.27 1.327l-.953-2.312.953 2.312zM18.018 73.92l-2.208 1.173 2.208-1.173zm23.411 44.031l-2.207 1.173 1.174 2.208 2.207-1.174-1.174-2.207zm53.017-58.898l-2.083 1.382 2.083-1.383zm-2.798-3.488l-2.5.028.011.992.688.714 1.8-1.734zm-9.725-5.392l11.515-16.66-4.113-2.843L77.81 47.33l4.113 2.843zm-17.546 2.463a22.152 22.152 0 0114.882-1.46l1.216-4.85a27.152 27.152 0 00-18.232 1.789l2.134 4.521zm-1.426.674l1.426-.674-2.134-4.521-1.427.673 2.135 4.522zm-4.023-2.34l.806 1.357 4.298-2.555-.806-1.356-4.298 2.554zM47.407 41.44a22.153 22.153 0 0111.521 9.532l4.298-2.554a27.153 27.153 0 00-14.115-11.678l-1.704 4.7zm3.352-2.378l-.23-20.251-5 .056.23 20.251 5-.056zm-4.787-21.644L32.625 36.728l4.113 2.843L50.086 20.26l-4.114-2.842zm-14.606 24.37a22.283 22.283 0 013.839-1.192l-1.046-4.89a27.286 27.286 0 00-4.7 1.46l1.907 4.623zm-11.14 30.96c-6.16-11.585-.99-25.956 11.14-30.96l-1.907-4.622c-14.86 6.13-21.195 23.737-13.649 37.93l4.415-2.348zm23.41 44.031l-23.41-44.031-4.416 2.347 23.412 44.031 4.415-2.347zm40.65-24.446l-44.03 23.412 2.347 4.415 44.031-23.412-2.347-4.415zm8.077-31.896c7.258 10.93 3.509 25.737-8.076 31.896l2.347 4.415c14.193-7.546 18.786-25.685 9.894-39.076l-4.165 2.765zM89.847 57.3c.917.952 1.76 1.999 2.516 3.136l4.165-2.765a27.288 27.288 0 00-3.08-3.84l-3.6 3.47zm-.965-25.18l.266 23.474 5-.056-.267-23.474-5 .056z" fill="#FF8000"/></g><path d="M79.867 48.753l-.365 1.455 1.008.252.59-.855-1.233-.852zm11.515-16.66l1.5-.018-.054-4.714-2.68 3.878 1.234.853zM63.31 50.376l-.64-1.357.64 1.357zm-1.427.673l-1.29.767.698 1.172 1.233-.582-.64-1.357zm-.806-1.356l1.29-.766-1.29.766zM48.26 39.09l-1.5.017.012 1.04.977.353.51-1.41zm-.23-20.251l1.5-.017-.054-4.714-2.68 3.878 1.234.853zM34.682 38.15l.313 1.467.582-.125.339-.49-1.234-.852zm-4.27 1.327l-.572-1.387.572 1.386zM18.018 73.92l-1.325.704 1.325-.704zm23.411 44.031l-1.324.704.704 1.324 1.325-.704-.705-1.324zm53.017-58.898l-1.25.83 1.25-.83zm-2.798-3.488l-1.5.017.007.595.413.429 1.08-1.041zM81.1 49.606l11.514-16.661-2.467-1.706L78.633 47.9l2.468 1.706zm-17.15 2.127a23.152 23.152 0 0115.551-1.525l.73-2.91a26.152 26.152 0 00-17.563 1.722l1.281 2.713zm-1.427.674l1.426-.674-1.28-2.713-1.427.674 1.28 2.713zm-2.736-1.946l.806 1.355 2.579-1.532-.806-1.356-2.58 1.533zm-12.04-9.962a23.152 23.152 0 0112.04 9.962l2.579-1.533a26.152 26.152 0 00-13.597-11.25L47.748 40.5zm2.01-1.427l-.23-20.251-2.999.034.23 20.251 3-.034zm-2.963-21.087L33.448 37.297l2.468 1.706L49.263 19.69l-2.468-1.706zm-15.81 22.878a23.294 23.294 0 014.01-1.246l-.627-2.934a26.284 26.284 0 00-4.528 1.407l1.144 2.773zM19.341 73.216C12.905 61.11 18.31 46.092 30.984 40.863L29.84 38.09C15.527 43.994 9.424 60.954 16.693 74.625l2.65-1.409zm23.412 44.031l-23.412-44.03-2.649 1.408 23.412 44.031 2.649-1.409zm42.002-24.032l-44.03 23.412 1.408 2.649 44.03-23.412-1.408-2.649zm8.44-33.332c7.584 11.423 3.667 26.895-8.44 33.332l1.409 2.65c13.67-7.27 18.095-24.742 9.53-37.641l-2.499 1.66zm-2.628-3.276a23.29 23.29 0 012.628 3.276l2.5-1.66a26.285 26.285 0 00-2.968-3.698l-2.16 2.082zm-.686-24.498l.266 23.474 3-.034-.266-23.474-3 .034z" fill="#FF8000"/><path d="M79.867 48.753l-.061.242.168.042.099-.142-.206-.142zm11.515-16.66l.25-.004-.01-.785-.446.646.206.142zM63.31 50.376l-.107-.226.107.226zm-1.427.673l-.215.128.117.195.205-.097-.107-.226zm-.806-1.356l.215-.128-.215.128zM48.26 39.09l-.25.003.002.173.163.059.085-.235zm-.23-20.251l.25-.003-.009-.786-.447.647.206.142zM34.682 38.15l.052.244.097-.02.056-.082-.205-.142zm-4.27 1.327l-.095-.232.095.232zM18.018 73.92l-.221.117.22-.117zm23.411 44.031l-.22.117.117.221.22-.118-.117-.22zm53.017-58.898l-.209.138.209-.139zm-2.798-3.488l-.25.003.001.099.069.071.18-.173zm-11.575-6.671l11.514-16.66-.411-.285L79.66 48.61l.412.285zm-16.656 1.708a24.402 24.402 0 0116.389-1.608l.122-.485a24.902 24.902 0 00-16.725 1.64l.214.453zm-1.427.673l1.427-.673-.214-.452-1.426.673.213.452zm-1.128-1.454l.806 1.356.43-.256-.806-1.356-.43.256zM48.174 39.324a24.402 24.402 0 0112.688 10.498l.43-.256a24.902 24.902 0 00-12.948-10.712l-.17.47zm.335-.238l-.23-20.25-.5.005.23 20.25.5-.005zm-.686-20.39L34.476 38.008l.411.284L48.235 18.98l-.412-.284zM30.508 39.708a24.541 24.541 0 014.226-1.314l-.105-.489c-1.453.311-2.896.756-4.312 1.34l.19.463zm-12.27 34.095c-6.783-12.758-1.088-28.585 12.27-34.095l-.19-.463C16.685 44.868 10.874 61.02 17.796 74.038l.441-.235zm23.412 44.031l-23.412-44.03-.441.234 23.412 44.031.441-.235zm43.693-23.515l-44.03 23.412.234.441 44.031-23.411-.235-.442zm8.894-35.127c7.993 12.038 3.864 28.343-8.894 35.127l.235.442c13.019-6.923 17.232-23.562 9.076-35.846l-.416.277zm-2.77-3.453a24.534 24.534 0 012.77 3.453l.417-.277a25.033 25.033 0 00-2.826-3.522l-.36.346zm-.335-23.644l.266 23.474.5-.006-.266-23.474-.5.006z" fill="#fff"/><defs><filter id="filter0_f_29_733" x="2.617" y=".953" width="108.459" height="130.38" filterUnits="userSpaceOnUse" color-interpolation-filters="sRGB"><feFlood flood-opacity="0" result="BackgroundImageFix"/><feBlend in="SourceGraphic" in2="BackgroundImageFix" result="shape"/><feGaussianBlur stdDeviation="5" result="effect1_foregroundBlur_29_733"/></filter></defs></svg>