<svg width="210" height="76" fill="none" xmlns="http://www.w3.org/2000/svg"><g style="mix-blend-mode:luminosity"><path d="M42.493 26.227l-1.309 4.541c-4.234-3.656-9.66-5.889-15.896-5.889C10.816 24.88 0 35.773 0 50.322 0 64.871 10.816 75.88 25.288 75.88c6.158 0 11.508-2.156 15.627-5.812l1.154 4.388h10.162V26.226h-9.738zM26.327 63.523c-7.583 0-13.125-5.696-13.125-13.202 0-7.582 5.542-13.202 13.125-13.202 7.582 0 13.125 5.62 13.125 13.202 0 7.583-5.504 13.202-13.125 13.202zm72.746 10.893L82.56 49.051l15.55-22.863H83.83l-9.007 14.01-8.314-14.01H51.77l15.28 23.48-16.358 24.748h14.357l9.738-15.896 9.545 15.896h14.742zm43.185-24.172c0-13.933-10.161-25.364-25.018-25.364-14.28 0-25.018 10.97-25.018 25.441 0 14.472 10.815 25.558 25.018 25.558 11.239 0 20.438-6.698 23.94-17.244h-13.663c-1.963 3.464-5.696 5.62-10.277 5.62-6.351 0-10.623-3.657-11.778-10.277h36.527c.154-1.232.269-2.502.269-3.734zM117.24 36.042c5.889 0 10.085 3.233 11.97 9.122h-23.402c1.502-5.735 5.62-9.122 11.432-9.122zm26.25 38.374h13.048V8.868H143.49v65.548zm56.811-48.19l-1.347 4.543c-4.196-3.657-9.661-5.89-15.897-5.89-14.471 0-25.287 10.893-25.287 25.442 0 14.55 10.816 25.558 25.287 25.558 6.159 0 11.509-2.156 15.628-5.812l1.154 4.388H210V26.226h-9.699zm-16.166 37.297c-7.582 0-13.125-5.696-13.125-13.202 0-7.582 5.543-13.202 13.125-13.202 7.583 0 13.125 5.62 13.125 13.202 0 7.583-5.542 13.202-13.125 13.202z" fill="#fff"/><path d="M36.565 0h10.008l2.988 4.794-13.054 16.238-3.021-4.674L36.566 0z" fill="#FFFC52"/><path d="M33.486 16.358L46.573 0l3.095 4.811L36.412 21.17l-2.926-4.81z" fill="#F19422"/></g></svg>