<svg width="250" height="55" fill="none" xmlns="http://www.w3.org/2000/svg"><path d="M18.456 38.651c-5.443 0-11.3-3.935-15.065-10.158C-.504 22.03-1.088 14.919 1.87 9.917 7.669.132 17.245-1.765 23.31 1.421c4.453 2.341 8.189 8.223 4.06 17.124-1.283 2.762-1.099 5.96-.92 9.05.197 3.408.383 6.627-1.569 8.795-1.24 1.38-3.164 2.116-5.883 2.249-.179.007-.356.012-.542.012zM17.323 2.507c-4.501 0-9.685 2.612-13.287 8.707-2.971 5.007-1.17 11.534 1.51 15.97 3.412 5.662 8.651 9.174 13.338 8.944 2.005-.09 3.356-.573 4.116-1.417 1.252-1.39 1.102-3.976.93-6.97-.189-3.241-.4-6.918 1.148-10.253 3.39-7.285.695-11.927-2.95-13.842a10.332 10.332 0 00-4.805-1.14z" fill="#fff"/><path d="M27.22 28.058a15.79 15.79 0 01-6.907-1.502c-3.22-1.545-7.278-5.028-8.317-12.821-.397-2.977.242-5.42 1.867-7.256 3.762-4.247 11.963-4.146 17.388-4.083.627 0 1.21.017 1.758.017 1.012 0 2.056-.029 3.162-.058 6.44-.176 13.752-.363 16.159 5.268 2.438 5.71-.216 9.375-11.842 16.335-4.532 2.717-9.11 4.1-13.268 4.1zm1.77-23.17c-4.762 0-10.667.34-13.244 3.245-1.145 1.301-1.556 3.019-1.256 5.27.704 5.288 3.097 9.056 6.915 10.885 4.73 2.278 11.379 1.344 17.79-2.494 12.222-7.319 12.241-9.868 10.82-13.194C48.28 4.54 42.16 4.701 36.24 4.858c-1.073.03-2.18.058-3.227.058-.553 0-1.153 0-1.79-.014-.702 0-1.443-.01-2.232-.01v-.005z" fill="#fff"/><path d="M38.417 43.22c-3.375 0-6.46-.839-8.941-2.49-3.482-2.318-5.523-6.067-5.9-10.839-.342-4.31 1.547-8.32 5.326-11.29 5.876-4.63 15.319-5.957 23.5-3.301 4.663 1.514 7.234 4.72 7.239 9.033 0 3.307-1.569 7.179-4.312 10.625-2.683 3.37-6.138 5.928-9.481 7.014a23.973 23.973 0 01-7.43 1.249zm5.254-26.772c-4.99 0-9.798 1.43-13.222 4.127-2.179 1.722-4.716 4.701-4.358 9.118.315 3.976 1.971 7.07 4.787 8.949 3.576 2.382 8.745 2.728 14.185.95 6.092-1.988 12.065-9.543 12.06-15.252 0-3.226-1.855-5.46-5.5-6.646a25.901 25.901 0 00-7.952-1.246z" fill="#fff"/><path d="M40.223 53.39c-.558 0-1.116-.041-1.668-.123a13.897 13.897 0 01-6.953-3.311c-.819-.687-1.768-1.39-2.77-2.136-4.956-3.683-11.125-8.264-10.53-16.807.426-6.12 3.617-11.23 8.537-13.67 4.683-2.325 10.27-1.89 14.946 1.163 5.54 3.616 9.614 10.732 10.382 18.126.566 5.459-.806 10.158-3.874 13.208-2.792 2.798-5.726 3.55-8.07 3.55zm-7.021-35.034c-1.82 0-3.616.423-5.244 1.236-4.172 2.07-6.78 6.289-7.145 11.595-.501 7.171 4.823 11.126 9.52 14.616 1.041.774 2.024 1.505 2.905 2.245l.039.033c2.392 2.177 8.232 4.988 13.244-.019 2.515-2.51 3.631-6.48 3.147-11.172-.683-6.569-4.401-13.111-9.254-16.28a13.185 13.185 0 00-7.217-2.254h.005z" fill="#fff"/><path d="M19.785 54.549a15.187 15.187 0 01-7.883-2.08c-4-2.383-6.714-6.772-7.264-11.764-.47-4.286-1.111-10.159 6.537-14.227 6.002-3.193 15.495-2.177 22.224.242 2.227.803 7.551 3.02 8.897 6.288a10.781 10.781 0 01-.094 8.432c-1.874 4.465-6.569 8.335-13.578 11.189-3.394 1.398-6.336 1.92-8.84 1.92zm1.155-27.573c-3.615 0-6.608.685-8.574 1.732-5.72 3.03-5.781 6.605-5.222 11.726.46 4.203 2.719 7.897 6.053 9.877 3.852 2.293 8.864 2.293 14.493 0 8.055-3.28 11.084-7.159 12.207-9.834a8.317 8.317 0 00.087-6.504c-.658-1.6-3.503-3.473-7.423-4.883a34.58 34.58 0 00-11.621-2.126v.012zM106.874 19.667V46.71h-7.505v-3.115c-1.947 2.343-4.765 3.515-8.455 3.517a14.212 14.212 0 01-6.944-1.708 12.29 12.29 0 01-4.83-4.876c-1.175-2.11-1.761-4.556-1.76-7.338.002-2.781.589-5.228 1.76-7.34a12.298 12.298 0 014.83-4.874 14.215 14.215 0 016.944-1.71c3.454 0 6.155 1.089 8.101 3.267v-2.866h7.859zM92.282 40.678c1.98 0 3.625-.67 4.932-2.01 1.308-1.373 1.962-3.2 1.964-5.478.001-2.278-.653-4.088-1.964-5.43a6.519 6.519 0 00-4.932-2.06c-2.01 0-3.671.686-4.98 2.06-1.308 1.34-1.962 3.15-1.964 5.43-.001 2.28.653 4.106 1.964 5.478 1.307 1.34 2.967 2.01 4.98 2.01zm29.499-20.406h6.944v6.032h-6.733V46.71h-7.849V19.065c0-3.083.905-5.529 2.716-7.338 1.845-1.81 4.428-2.715 7.748-2.716a13.23 13.23 0 013.322.404 7.779 7.779 0 012.663 1.054l-2.065 5.682a5.358 5.358 0 00-3.17-.956c-2.384 0-3.576 1.305-3.576 3.914v1.163zm18.524 0h6.944v6.032h-6.733V46.71h-7.84V19.065c0-3.083.906-5.529 2.717-7.338 1.845-1.81 4.427-2.715 7.748-2.716 1.12-.007 2.236.13 3.321.404a7.782 7.782 0 012.664 1.054l-2.068 5.682a5.36 5.36 0 00-3.169-.956c-2.383 0-3.574 1.307-3.574 3.92l-.01 1.157zm27.33-1.006c3.356 0 6.056 1.005 8.101 3.016 2.081 2.01 3.12 4.994 3.119 8.949v15.48h-7.84V32.44c0-2.145-.47-3.737-1.409-4.775-.938-1.074-2.296-1.61-4.075-1.609-1.979 0-3.555.62-4.728 1.86-1.174 1.205-1.761 3.014-1.763 5.428v13.37h-7.849v-37.3h7.849v13.08a10.209 10.209 0 013.775-2.363 13.324 13.324 0 014.83-.866h-.01zm45.61.401V46.71h-7.438v-3.217a10.699 10.699 0 01-3.724 2.705c-1.483.611-3.075.92-4.68.904-3.551 0-6.368-1.021-8.452-3.064-2.084-2.043-3.124-5.076-3.121-9.1v-15.27h7.859v14.124c0 4.354 1.828 6.53 5.484 6.53 1.879 0 3.389-.602 4.53-1.809 1.139-1.24 1.709-3.066 1.709-5.48V19.667h7.833zm23.272-.401a13.507 13.507 0 016.842 1.758 12.2 12.2 0 014.881 4.876c1.175 2.079 1.762 4.509 1.76 7.29-.002 2.782-.588 5.228-1.76 7.338a12.64 12.64 0 01-4.881 4.876 13.812 13.812 0 01-6.842 1.708c-3.724 0-6.558-1.172-8.503-3.517v3.115h-7.506V9.415h7.849v13.118c1.989-2.178 4.712-3.267 8.169-3.267h-.009zm-1.359 21.412c2.012 0 3.655-.67 4.93-2.01 1.31-1.373 1.965-3.2 1.963-5.478-.001-2.278-.656-4.088-1.963-5.43-1.274-1.374-2.917-2.06-4.93-2.06-2.012 0-3.673.686-4.982 2.06-1.275 1.34-1.912 3.15-1.911 5.43.002 2.28.639 4.106 1.911 5.478 1.317 1.34 2.981 2.01 4.992 2.01h-.01z" fill="#fff"/></svg>