<svg width="345" height="70" fill="none" xmlns="http://www.w3.org/2000/svg"><g style="mix-blend-mode:luminosity" fill="#fff"><path fill-rule="evenodd" clip-rule="evenodd" d="M8.667 35L52.214 9.97V0L0 29.91v9.969L52.215 70l26.001-15.06v-9.97L52.215 60.03 8.666 35zm60.882-5.09L43.547 44.97l8.668 5.09 17.334-9.97V29.91zm-8.667-14.85L26.213 35l8.667 5.09 26.002-15.06v-9.97z"/><path d="M133.568 43.401v6.397h-27.05V15.13h26.426v6.397h-18.311v7.43h16.23v6.19h-16.23v8.048h18.935v.206zM178.299 15.13l-15.19 34.668h-7.907l-15.189-34.669h8.739l10.612 24.764 10.82-24.764h8.115zM213.244 43.4v6.398h-27.051V15.129h26.426v6.398h-18.311v7.429h16.231v6.19h-16.231v8.048h18.936v.207zM246.955 49.798l-6.659-9.699H232.805v9.699h-8.115V15.129h15.19c3.121 0 5.826.413 8.115 1.445 2.289 1.032 3.954 2.476 5.202 4.333 1.249 1.858 1.873 4.128 1.873 6.604s-.624 4.746-1.873 6.604c-1.248 1.857-3.121 3.301-5.41 4.333l7.907 11.144h-8.739v.206zm-2.081-26.62c-1.248-1.032-3.121-1.651-5.618-1.651h-6.659v12.175h6.659c2.497 0 4.37-.62 5.618-1.651 1.249-1.032 1.873-2.476 1.873-4.54 0-1.65-.624-3.302-1.873-4.334zM289.377 42.369h-16.23l-3.121 7.429h-8.323l15.606-34.669h7.907l15.605 34.669h-8.531l-2.913-7.429zm-2.705-5.984l-5.618-13.207-5.618 13.207h11.236zM309.571 15.13h15.814c3.746 0 7.075.618 9.988 2.063 2.913 1.445 5.202 3.508 6.866 5.985 1.665 2.682 2.497 5.572 2.497 9.08s-.832 6.604-2.497 9.08c-1.664 2.683-3.953 4.54-6.866 5.985-2.913 1.444-6.242 2.063-9.988 2.063h-15.814V15.13zm15.398 28.065c3.537 0 6.242-1.031 8.323-2.889 2.081-1.857 3.121-4.54 3.121-7.842 0-3.302-1.04-5.984-3.121-7.842-2.081-1.857-4.786-2.889-8.323-2.889h-7.491v21.462h7.491z"/></g></svg>