<svg width="253" height="78" fill="none" xmlns="http://www.w3.org/2000/svg"><g filter="url(#filter0_d_39_206)" fill="#fff"><path fill-rule="evenodd" clip-rule="evenodd" d="M141.161 51.853h-1.853l-.674 3.456h1.918c.961 0 2.015-.415 2.219-1.728a1.552 1.552 0 00-.405-1.237 1.54 1.54 0 00-1.205-.49zM125.647 52.866l-1.946 2.45h2.454l.719-3.456a3.34 3.34 0 00-1.227 1.006zM109.01 51.854h-1.863l-.691 3.456h1.922c.96 0 2.014-.415 2.218-1.728a1.556 1.556 0 00-.397-1.228 1.543 1.543 0 00-1.189-.5z"/><path fill-rule="evenodd" clip-rule="evenodd" d="M237.626 41.451H95.628a5.823 5.823 0 00-5.478 4.514l-3.64 18.7c-.483 2.485 1.19 4.513 3.72 4.513h141.998a5.817 5.817 0 005.478-4.513l3.639-18.7c.484-2.482-1.189-4.514-3.719-4.514zM105.805 58.783l-.691 3.456h-4.586l2.703-13.855h7.209c2.882 0 5.27 2.315 4.838 5.184-.611 3.95-3.767 5.184-6.646 5.184l-2.827.03zm23.314 3.456h-4.416l.715-3.456h-4.448l-2.733 3.456h-5.292l8.799-11.08c.937-1.185 1.618-2.765 5.081-2.765h5.204l-2.91 13.845zm18.296-8.66c-.401 2.591-1.894 4.018-3.691 4.692l2.364 3.968h-4.866l-2.073-3.456h-1.203l-.674 3.456h-4.593l2.703-13.855h7.212c2.879.007 5.267 2.322 4.821 5.201v-.007zm16.064-1.729h-4.186l-2.025 10.392h-4.603l2.025-10.392h-4.071l.691-3.456h12.86l-.691 3.456zm15.119 10.368h-3.843l-3.981-6.438-1.289 6.438h-4.555l2.765-13.824h3.839l3.982 6.439 1.289-6.439h4.555l-2.762 13.824zm16.935-10.368h-6.784l-.346 1.728h6.062l-.691 3.456h-6.066l-.345 1.728h6.912l-.692 3.456h-11.442l2.695-13.855h11.381l-.684 3.487zm16.153 1.728c-.401 2.592-1.898 4.02-3.691 4.693l2.364 3.968h-4.866l-2.074-3.456h-1.203l-.691 3.456h-4.603l2.702-13.855h7.213c2.924.007 5.312 2.322 4.866 5.201l-.017-.007zm7.658-.45a9.637 9.637 0 001.597.478c.771.172 1.53.398 2.27.674a4.148 4.148 0 011.594 1.11c.473.549.72 1.258.691 1.983a4.498 4.498 0 01-.85 2.716 5.53 5.53 0 01-2.44 1.815 9.88 9.88 0 01-3.726.642 14.224 14.224 0 01-3.394-.387 9.102 9.102 0 01-2.616-1.036l1.804-3.456a9.245 9.245 0 004.68 1.289c.471.024.941-.05 1.382-.218.318-.145.477-.346.477-.594 0-.25-.162-.43-.487-.574a9.918 9.918 0 00-1.535-.477 18.899 18.899 0 01-2.301-.722 4.275 4.275 0 01-1.597-1.13 2.912 2.912 0 01-.691-2.015 4.603 4.603 0 01.843-2.744 5.364 5.364 0 012.419-1.825 9.94 9.94 0 013.746-.643c.971-.007 1.939.095 2.886.304a8.11 8.11 0 012.309.885l-1.683 3.41a6.338 6.338 0 00-1.794-.773 7.882 7.882 0 00-2.015-.26 3.311 3.311 0 00-1.507.28c-.345.184-.535.401-.535.654 0 .252.166.477.49.622l-.017-.007z"/><path fill-rule="evenodd" clip-rule="evenodd" d="M205.447 51.854h-1.852l-.691 3.456h1.921c.961 0 2.015-.415 2.219-1.728a1.552 1.552 0 00-.944-1.611 1.549 1.549 0 00-.653-.117z"/><path d="M67.929 0a20.735 20.735 0 100 41.471 20.735 20.735 0 000-41.471zm9.79 33.222l-9.452-5.643-9.455 5.654L61.32 22.58l-8.343-7.157 11-.944 4.303-10.043 4.306 10.04 10.997.93-8.346 7.167 2.481 10.648z"/><path fill-rule="evenodd" clip-rule="evenodd" d="M247.659 13.824h-8.322l-4.033 20.736h-9.151l4.029-20.736h-8.097l1.341-6.912H249l-1.341 6.912zm-45.992 0l-.691 3.456h12.096l-1.348 6.912h-12.096l-.691 3.456h13.758l-1.348 6.912h-22.906l5.374-27.648h22.682l-1.348 6.912h-13.482zm-22.581 6.566a6.52 6.52 0 012.74 2.147 5.48 5.48 0 01.965 3.252c0 2.912-1.202 5.1-3.605 6.566-2.403 1.465-5.496 2.2-9.279 2.205h-15.898l5.53-27.579h14.615c3.226 0 5.682.576 7.368 1.728a5.528 5.528 0 012.52 4.866 6.656 6.656 0 01-1.3 4.078 8.527 8.527 0 01-3.656 2.724v.014zm-14.698 7.258h5.529a2.2 2.2 0 002.074-1.728 1.379 1.379 0 00-.259-1.21 1.382 1.382 0 00-1.124-.518h-5.529l-.691 3.456zm7.527-13.824h-4.839l-.691 3.456h4.839a2.2 2.2 0 002.073-1.728 1.379 1.379 0 00-.759-1.601 1.385 1.385 0 00-.623-.127zm-28.999 0l-4.03 20.736h-9.155l4.03-20.736h-8.097l1.341-6.912h25.574l-1.341 6.912h-8.322zm-29.839.132a15.635 15.635 0 00-3.998-.512c-1.29 0-2.285.183-2.997.55-.712.366-1.061.801-1.061 1.299 0 .498.322.895.964 1.182 1.028.408 2.09.725 3.173.947 1.526.346 3.027.794 4.493 1.34a8.142 8.142 0 013.172 2.206c.892.997 1.338 2.31 1.338 3.94a8.917 8.917 0 01-1.694 5.398 10.879 10.879 0 01-4.838 3.604 19.611 19.611 0 01-7.406 1.279 28.433 28.433 0 01-6.74-.767 18.126 18.126 0 01-5.2-2.029l3.587-6.857a18.343 18.343 0 009.296 2.561 6.729 6.729 0 002.72-.432c.629-.29.944-.684.944-1.182 0-.497-.322-.879-.965-1.144-.99-.396-2.01-.712-3.051-.943a38.026 38.026 0 01-4.572-1.438 8.472 8.472 0 01-3.173-2.246c-.905-1.014-1.358-2.347-1.358-3.999a9.149 9.149 0 011.676-5.457 10.68 10.68 0 014.838-3.625c2.102-.852 4.584-1.279 7.448-1.279a25.717 25.717 0 015.73.609c1.612.345 3.161.937 4.593 1.755l-3.349 6.774a12.674 12.674 0 00-3.57-1.534zM28.883 34.56l2.454-12.652L22.22 34.56h-2.744l-3.912-12.42-2.42 12.42H4L9.364 6.912h9.31L23.308 21.6 33.88 6.912h9.5L38.015 34.56h-9.131z"/></g><defs><filter id="filter0_d_39_206" x="0" y="0" width="253" height="77.178" filterUnits="userSpaceOnUse" color-interpolation-filters="sRGB"><feFlood flood-opacity="0" result="BackgroundImageFix"/><feColorMatrix in="SourceAlpha" values="0 0 0 0 0 0 0 0 0 0 0 0 0 0 0 0 0 0 127 0" result="hardAlpha"/><feOffset dy="4"/><feGaussianBlur stdDeviation="2"/><feComposite in2="hardAlpha" operator="out"/><feColorMatrix values="0 0 0 0 0 0 0 0 0 0 0 0 0 0 0 0 0 0 0.25 0"/><feBlend in2="BackgroundImageFix" result="effect1_dropShadow_39_206"/><feBlend in="SourceGraphic" in2="effect1_dropShadow_39_206" result="shape"/></filter></defs></svg>