<svg width="199" height="234" fill="none" xmlns="http://www.w3.org/2000/svg"><g filter="url(#filter0_f_39_100)"><path clip-rule="evenodd" d="M98.593 13.94L50.296 26.883l11.647 43.466L13.647 83.29l12.94 48.297 48.297-12.941 27.176 101.422 48.296-12.941-27.176-101.422 48.297-12.941-12.941-48.296-48.297 12.94-11.646-43.466z" stroke="#FF8000" stroke-width="5"/></g><path clip-rule="evenodd" d="M98.593 13.94L50.296 26.883l11.647 43.466L13.647 83.29l12.94 48.297 48.297-12.941 27.176 101.422 48.296-12.941-27.176-101.422 48.297-12.941-12.941-48.296-48.297 12.94-11.646-43.466z" stroke="#FF8000" stroke-width="3"/><path clip-rule="evenodd" d="M98.593 13.94L50.296 26.883l11.647 43.466L13.647 83.29l12.94 48.297 48.297-12.941 27.176 101.422 48.296-12.941-27.176-101.422 48.297-12.941-12.941-48.296-48.297 12.94-11.646-43.466z" stroke="#fff" stroke-width=".5"/><defs><filter id="filter0_f_39_100" x=".585" y=".879" width="183.954" height="232.25" filterUnits="userSpaceOnUse" color-interpolation-filters="sRGB"><feFlood flood-opacity="0" result="BackgroundImageFix"/><feBlend in="SourceGraphic" in2="BackgroundImageFix" result="shape"/><feGaussianBlur stdDeviation="5" result="effect1_foregroundBlur_39_100"/></filter></defs></svg>