<svg width="170" height="44" fill="none" xmlns="http://www.w3.org/2000/svg"><path d="M.787 15.866V2.453A2.457 2.457 0 013.247 0H16.7a2.458 2.458 0 012.46 2.453v13.413a2.458 2.458 0 01-2.46 2.453H3.248a2.457 2.457 0 01-2.46-2.453z" fill="#A2C623"/><path d="M23.58 40.727V25.65a2.554 2.554 0 012.559-2.551H41.26a2.554 2.554 0 012.558 2.551v15.077a2.554 2.554 0 01-2.558 2.551H26.139a2.554 2.554 0 01-2.559-2.55z" fill="#3FAB35"/><path d="M10.142 43.28c5.599 0 10.137-4.526 10.137-10.108 0-5.583-4.538-10.108-10.137-10.108-5.6 0-10.138 4.525-10.138 10.108 0 5.582 4.539 10.108 10.138 10.108z" fill="#386EB5"/><path d="M23.342 16.968l9.037-15.88c.439-.768 1.455-.768 1.891 0l9.038 15.882c.466.818-.069 1.882-.946 1.882H24.287c-.877-.002-1.411-1.066-.945-1.884z" fill="#E20E13"/><path opacity=".1" d="M16.691 18.32a2.467 2.467 0 002.47-2.464V2.444a2.44 2.44 0 00-.659-1.671L1.564 17.66c.44.406 1.028.658 1.676.658H16.69z" fill="#020203"/><path opacity=".05" d="M.787 15.856a2.467 2.467 0 002.47 2.463H16.71c.648 0 1.236-.25 1.676-.658L1.45.775a2.45 2.45 0 00-.66 1.67v13.411H.787zM23.656 40.795a2.51 2.51 0 002.513 2.507h15.292c.593 0 1.135-.21 1.562-.557.02-.015.022-.046.004-.066L24.28 23.989a.045.045 0 00-.066.004 2.447 2.447 0 00-.558 1.557v15.245z" fill="#020203"/><path opacity=".05" d="M41.346 43.276a2.467 2.467 0 002.47-2.463v-15.29a2.45 2.45 0 00-.589-1.595L24.47 42.583c.43.365.898.695 1.509.695l15.368-.002zM2.956 26.025a10.086 10.086 0 00.014 14.28c3.954 3.943 10.362 3.947 14.322.014L2.956 26.025z" fill="#020203"/><path opacity=".1" d="M2.956 40.352c3.96 3.935 10.369 3.93 14.323-.013a10.088 10.088 0 00.013-14.281L2.956 40.352zM38.662 8.805l-15.392 9.32c.17.413.543.725 1.016.725h18.075c.878 0 1.412-1.063.946-1.881l-4.645-8.164z" fill="#020203"/><path opacity=".1" d="M27.988 8.806l15.392 9.32c-.17.414-.542.726-1.016.726H24.289c-.877 0-1.412-1.064-.946-1.882l4.645-8.164z" fill="#020203"/><path d="M74.414 6.415h-.454a2.22 2.22 0 00-1.926 1.11L65.25 19.248 58.468 7.524a2.225 2.225 0 00-1.926-1.111h-.454c-1.711 0-2.782 1.848-1.926 3.326l8.63 14.892v11.626c0 1.224.997 2.218 2.224 2.218h.47a2.221 2.221 0 002.223-2.218V24.633L76.34 9.74c.854-1.478-.214-3.326-1.925-3.326z" fill="url(#paint0_linear_39_173)"/><path d="M95.86 5.213c-9.643 0-16.729 7.21-16.729 16.631s7.088 16.63 16.729 16.63c9.64 0 16.728-7.209 16.728-16.63S105.502 5.213 95.86 5.213zm0 28.744c-6.894 0-11.812-4.999-11.812-12.113 0-7.112 4.918-12.113 11.812-12.113 6.894 0 11.811 4.999 11.811 12.113s-4.917 12.113-11.811 12.113z" fill="url(#paint1_linear_39_173)"/><path d="M129.893 18.768l-3.23-1.298c-3.134-1.25-3.47-2.931-3.47-3.892 0-2.067 1.542-3.845 4.531-3.845 1.398 0 2.459.338 3.471 1.154.18.156.342.316.489.478.717.792 1.879 1.001 2.803.463l.092-.055a2.215 2.215 0 00.578-3.343 10.232 10.232 0 00-1.024-1.052c-1.012-.865-2.989-2.163-6.46-2.163-6.025 0-9.4 4.134-9.4 8.459 0 4.807 3.906 7.018 6.556 8.123l3.085 1.298c2.122.865 4.627 2.211 4.627 5.479 0 3.22-2.313 5.383-5.302 5.383-1.928 0-3.279-.77-4.195-1.923a6.66 6.66 0 01-1.042-2.063c-.338-1.1-1.444-1.778-2.574-1.532l-.495.107a2.222 2.222 0 00-1.646 2.842c.423 1.349 1.135 2.647 2.235 3.866 1.639 1.827 3.857 3.22 7.57 3.22 6.025 0 10.365-4.182 10.365-10.285.006-3.652-1.635-7.016-7.564-9.421z" fill="url(#paint2_linear_39_173)"/><path d="M157.951 8.95c-.777-1.729-3.232-1.752-4.04-.039l-12.454 26.404c-.693 1.471.384 3.16 2.013 3.16h.366c.873 0 1.664-.51 2.026-1.302l2.926-6.437h13.738l2.793 6.406a2.224 2.224 0 002.04 1.333h.415c1.611 0 2.687-1.655 2.03-3.123L157.951 8.95zm-7.137 17.172l4.964-10.862 4.773 10.862h-9.737z" fill="url(#paint3_linear_39_173)"/><defs><linearGradient id="paint0_linear_39_173" x1="41.421" y1="8.07" x2="168.672" y2="73.097" gradientUnits="userSpaceOnUse"><stop stop-color="#C81617"/><stop offset=".332" stop-color="#CED71A"/><stop offset=".693" stop-color="#3FAB35"/><stop offset="1" stop-color="#396EB5"/></linearGradient><linearGradient id="paint1_linear_39_173" x1="47.053" y1="-2.951" x2="174.304" y2="62.077" gradientUnits="userSpaceOnUse"><stop stop-color="#C81617"/><stop offset=".332" stop-color="#CED71A"/><stop offset=".693" stop-color="#3FAB35"/><stop offset="1" stop-color="#396EB5"/></linearGradient><linearGradient id="paint2_linear_39_173" x1="53.549" y1="-15.661" x2="180.799" y2="49.366" gradientUnits="userSpaceOnUse"><stop stop-color="#C81617"/><stop offset=".332" stop-color="#CED71A"/><stop offset=".693" stop-color="#3FAB35"/><stop offset="1" stop-color="#396EB5"/></linearGradient><linearGradient id="paint3_linear_39_173" x1="57.658" y1="-23.703" x2="184.908" y2="41.324" gradientUnits="userSpaceOnUse"><stop stop-color="#C81617"/><stop offset=".332" stop-color="#CED71A"/><stop offset=".693" stop-color="#3FAB35"/><stop offset="1" stop-color="#396EB5"/></linearGradient></defs></svg>