<svg width="228" height="240" viewBox="0 0 228 240" fill="none" xmlns="http://www.w3.org/2000/svg">
<g filter="url(#filter0_f_113_717)">
<path fill-rule="evenodd" clip-rule="evenodd" d="M126.206 13.8791L179.332 28.1141L167.685 71.5808L215.982 84.5217L201.747 137.648L153.45 124.707L126.274 226.129L73.1483 211.894L100.324 110.472L52.028 97.5307L66.2631 44.4048L114.559 57.3457L126.206 13.8791ZM129.742 20.0028L118.095 63.4694L69.7986 50.5285L58.1517 93.9952L106.448 106.936L79.272 208.358L122.739 220.005L149.915 118.583L198.211 131.524L209.858 88.0573L161.562 75.1163L173.208 31.6496L129.742 20.0028Z" fill="#FF8000"/>
</g>
<path fill-rule="evenodd" clip-rule="evenodd" d="M126.913 15.1038L178.107 28.8212L166.461 72.2879L214.757 85.2288L201.039 136.423L152.743 123.482L125.567 224.904L74.3731 211.187L101.549 109.765L53.2528 96.8236L66.9702 45.6295L115.266 58.5705L126.913 15.1038ZM129.035 18.778L117.388 62.2447L69.0915 49.3037L56.927 94.7023L105.223 107.643L78.0473 209.065L123.446 221.23L150.622 119.808L198.918 132.749L211.083 87.3501L162.786 74.4092L174.433 30.9425L129.035 18.778Z" fill="#FF8000"/>
<path fill-rule="evenodd" clip-rule="evenodd" d="M127.797 16.6347L176.576 29.705L164.93 73.1717L213.226 86.1127L200.155 134.892L151.859 121.951L124.683 223.373L75.9039 210.303L103.08 108.881L54.7836 95.9396L67.854 47.1604L116.15 60.1013L127.797 16.6347ZM128.151 17.2471L116.504 60.7137L68.2076 47.7728L55.396 95.5861L103.692 108.527L76.5163 209.949L124.33 222.761L151.506 121.339L199.802 134.28L212.613 86.4662L164.317 73.5253L175.964 30.0586L128.151 17.2471Z" fill="white"/>
<g filter="url(#filter1_f_113_717)">
<path fill-rule="evenodd" clip-rule="evenodd" d="M70.4922 124.126C63.3604 113.028 49.1667 108.843 37.1549 114.296C22.8624 120.785 17.2794 138.183 25.1276 151.777L53.2119 200.42L101.855 172.336C115.449 164.488 119.313 146.629 110.18 133.863C102.504 123.135 88.1189 119.662 76.3938 125.707L72.7242 127.599L70.4922 124.126ZM74.4722 121.076C65.9273 108.15 49.2341 103.322 35.088 109.744C18.106 117.453 11.4725 138.125 20.7975 154.277L51.3818 207.25L104.355 176.666C120.507 167.341 125.098 146.122 114.246 130.954C105.206 118.319 88.3352 114.154 74.4722 121.076Z" fill="#FF8000"/>
</g>
<path fill-rule="evenodd" clip-rule="evenodd" d="M71.3335 123.585C63.9333 112.07 49.2054 107.728 36.7416 113.386C21.9112 120.119 16.1181 138.172 24.2616 152.277L52.8459 201.786L102.355 173.202C116.46 165.058 120.47 146.527 110.993 133.281C103.028 122.149 88.102 118.546 75.9356 124.818L73.074 126.294L71.3335 123.585ZM35.5014 110.654C49.3214 104.38 65.6519 109.195 73.8573 121.963L74.1234 122.378L74.5609 122.152C88.0511 115.197 104.601 119.192 113.433 131.536C123.941 146.223 119.495 166.77 103.855 175.8L51.7479 205.884L21.6635 153.777C12.6339 138.137 19.0574 118.12 35.5014 110.654Z" fill="#FF8000"/>
<path fill-rule="evenodd" clip-rule="evenodd" d="M72.3851 122.91C64.6494 110.872 49.2538 106.333 36.2248 112.248C20.7221 119.286 14.6663 138.157 23.1791 152.902L52.3884 203.494L102.98 174.284C117.725 165.772 121.916 146.401 112.009 132.554C103.684 120.917 88.0808 117.151 75.3628 123.708L73.5113 124.662L72.3851 122.91ZM36.0182 111.792C49.2731 105.775 64.9359 110.393 72.8057 122.639L73.6862 124.009L75.1337 123.263C88.0723 116.593 103.946 120.424 112.416 132.263C122.495 146.35 118.231 166.057 103.23 174.717L52.2054 204.177L22.7461 153.152C14.0857 138.151 20.2465 118.953 36.0182 111.792Z" fill="white"/>
<defs>
<filter id="filter0_f_113_717" x="42.028" y="3.87903" width="183.954" height="232.25" filterUnits="userSpaceOnUse" color-interpolation-filters="sRGB">
<feFlood flood-opacity="0" result="BackgroundImageFix"/>
<feBlend mode="normal" in="SourceGraphic" in2="BackgroundImageFix" result="shape"/>
<feGaussianBlur stdDeviation="5" result="effect1_foregroundBlur_113_717"/>
</filter>
<filter id="filter1_f_113_717" x="6.55884" y="96.9161" width="123.587" height="120.334" filterUnits="userSpaceOnUse" color-interpolation-filters="sRGB">
<feFlood flood-opacity="0" result="BackgroundImageFix"/>
<feBlend mode="normal" in="SourceGraphic" in2="BackgroundImageFix" result="shape"/>
<feGaussianBlur stdDeviation="5" result="effect1_foregroundBlur_113_717"/>
</filter>
</defs>
</svg>
