<svg width="112" height="132" viewBox="0 0 112 132" fill="none" xmlns="http://www.w3.org/2000/svg">
<g filter="url(#filter0_f_29_733)">
<path d="M79.8668 48.7526L79.2588 51.1775L80.9387 51.5987L81.9234 50.174L79.8668 48.7526ZM91.3816 32.0922L93.8814 32.0638L93.7923 24.2072L89.325 30.6708L91.3816 32.0922ZM63.3098 50.3766L62.2425 48.1159L63.3098 50.3766ZM61.8833 51.0501L59.7343 52.3275L60.8955 54.2812L62.9507 53.3108L61.8833 51.0501ZM61.0773 49.6941L63.2264 48.4168L63.2264 48.4168L61.0773 49.6941ZM48.2588 39.089L45.759 39.1174L45.7786 40.8492L47.4069 41.4394L48.2588 39.089ZM48.029 18.838L50.5289 18.8096L50.4397 10.953L45.9724 17.4166L48.029 18.838ZM34.6817 38.1499L35.2047 40.5946L36.1744 40.3871L36.7383 39.5713L34.6817 38.1499ZM30.4124 39.4765L29.459 37.1654L29.459 37.1654L30.4124 39.4765ZM18.0177 73.9205L15.8104 75.0941L18.0177 73.9205ZM41.4295 117.952L39.2221 119.125L40.3958 121.333L42.6032 120.159L41.4295 117.952ZM94.4458 59.0535L92.3631 60.4363L94.4458 59.0535ZM91.6479 55.566L89.1481 55.5944L89.1594 56.586L89.8474 57.3003L91.6479 55.566ZM81.9234 50.174L93.4382 33.5136L89.325 30.6708L77.8102 47.3311L81.9234 50.174ZM64.3772 52.6373C69.1765 50.3714 74.4228 49.9649 79.2588 51.1775L80.4748 46.3276C74.5541 44.8431 68.1208 45.3406 62.2425 48.1159L64.3772 52.6373ZM62.9507 53.3108L64.3772 52.6373L62.2425 48.1159L60.816 48.7894L62.9507 53.3108ZM58.9283 50.9714L59.7343 52.3275L64.0324 49.7728L63.2264 48.4168L58.9283 50.9714ZM47.4069 41.4394C52.0943 43.1384 56.2165 46.4091 58.9283 50.9714L63.2264 48.4168C59.9049 42.8287 54.8495 38.8187 49.1107 36.7386L47.4069 41.4394ZM50.7587 39.0606L50.5289 18.8096L45.5292 18.8663L45.759 39.1174L50.7587 39.0606ZM45.9724 17.4166L32.6251 36.7285L36.7383 39.5713L50.0856 20.2594L45.9724 17.4166ZM31.3658 41.7876C32.628 41.2669 33.9124 40.871 35.2047 40.5946L34.1587 35.7052C32.5738 36.0442 31.0013 36.5292 29.459 37.1654L31.3658 41.7876ZM20.2251 72.7468C14.0654 61.1621 19.2369 46.7911 31.3658 41.7876L29.459 37.1654C14.5997 43.2953 8.26404 60.9016 15.8104 75.0941L20.2251 72.7468ZM43.6369 116.778L20.2251 72.7468L15.8104 75.0941L39.2221 119.125L43.6369 116.778ZM84.2869 92.3325L40.2558 115.744L42.6032 120.159L86.6343 96.7472L84.2869 92.3325ZM92.3631 60.4363C99.6205 71.3668 95.8716 86.1728 84.2869 92.3325L86.6343 96.7472C100.827 89.2009 105.42 71.0618 96.5285 57.6706L92.3631 60.4363ZM89.8474 57.3003C90.7642 58.2522 91.6077 59.2987 92.3631 60.4363L96.5285 57.6706C95.6056 56.2807 94.573 54.9991 93.4485 53.8317L89.8474 57.3003ZM88.8817 32.1205L89.1481 55.5944L94.1478 55.5376L93.8814 32.0638L88.8817 32.1205Z" fill="#FF8000"/>
</g>
<path d="M79.8668 48.7526L79.502 50.2075L80.51 50.4602L81.1008 49.6054L79.8668 48.7526ZM91.3816 32.0922L92.8815 32.0751L92.828 27.3612L90.1476 31.2393L91.3816 32.0922ZM63.3098 50.3766L62.6694 49.0202L62.6694 49.0202L63.3098 50.3766ZM61.8833 51.0501L60.5939 51.8165L61.2906 52.9888L62.5237 52.4066L61.8833 51.0501ZM61.0773 49.6941L62.3668 48.9277L61.0773 49.6941ZM48.2588 39.089L46.7589 39.106L46.7707 40.1451L47.7477 40.4992L48.2588 39.089ZM48.029 18.838L49.5289 18.821L49.4754 14.107L46.7951 17.9851L48.029 18.838ZM34.6817 38.1499L34.9955 39.6167L35.5773 39.4922L35.9157 39.0027L34.6817 38.1499ZM30.4124 39.4765L29.8404 38.0899L29.8404 38.0899L30.4124 39.4765ZM18.0177 73.9205L16.6933 74.6247L18.0177 73.9205ZM41.4295 117.952L40.1051 118.656L40.8093 119.98L42.1337 119.276L41.4295 117.952ZM94.4458 59.0535L93.1962 59.8832L93.1962 59.8832L94.4458 59.0535ZM91.6479 55.566L90.148 55.583L90.1548 56.178L90.5676 56.6066L91.6479 55.566ZM81.1008 49.6054L92.6155 32.945L90.1476 31.2393L78.6329 47.8997L81.1008 49.6054ZM63.9502 51.7331C68.9654 49.3652 74.449 48.9406 79.502 50.2075L80.2316 47.2976C74.5278 45.8675 68.3319 46.3467 62.6694 49.0202L63.9502 51.7331ZM62.5237 52.4066L63.9502 51.7331L62.6694 49.0202L61.2429 49.6937L62.5237 52.4066ZM59.7879 50.4605L60.5939 51.8165L63.1728 50.2837L62.3668 48.9277L59.7879 50.4605ZM47.7477 40.4992C52.6454 42.2745 56.9542 45.693 59.7879 50.4605L62.3668 48.9277C59.1672 43.5447 54.2985 39.6827 48.77 37.6788L47.7477 40.4992ZM49.7587 39.072L49.5289 18.821L46.5291 18.855L46.7589 39.106L49.7587 39.072ZM46.7951 17.9851L33.4477 37.297L35.9157 39.0027L49.263 19.6908L46.7951 17.9851ZM30.9844 40.8632C32.3027 40.3194 33.6447 39.9057 34.9955 39.6167L34.3679 36.6831C32.8415 37.0096 31.3266 37.4768 29.8404 38.0899L30.9844 40.8632ZM19.3421 73.2163C12.9052 61.11 18.3094 46.0919 30.9844 40.8632L29.8404 38.0899C15.5271 43.9945 9.42432 60.9537 16.6933 74.6247L19.3421 73.2163ZM42.7539 117.247L19.3421 73.2163L16.6933 74.6247L40.1051 118.656L42.7539 117.247ZM84.7564 93.2154L40.7253 116.627L42.1337 119.276L86.1648 95.8643L84.7564 93.2154ZM93.1962 59.8832C100.78 71.3058 96.8626 86.7784 84.7564 93.2154L86.1648 95.8643C99.8358 88.5953 104.26 71.1228 95.6954 58.2238L93.1962 59.8832ZM90.5676 56.6066C91.526 57.6016 92.4073 58.6951 93.1962 59.8832L95.6954 58.2238C94.806 56.8843 93.8113 55.6497 92.7283 54.5254L90.5676 56.6066ZM89.8817 32.1092L90.148 55.583L93.1479 55.549L92.8815 32.0751L89.8817 32.1092Z" fill="#FF8000"/>
<path d="M79.8668 48.7526L79.806 48.995L79.974 49.0372L80.0725 48.8947L79.8668 48.7526ZM91.3816 32.0922L91.6316 32.0893L91.6226 31.3037L91.1759 31.95L91.3816 32.0922ZM63.3098 50.3766L63.2031 50.1506L63.3098 50.3766ZM61.8833 51.0501L61.6684 51.1779L61.7845 51.3732L61.9901 51.2762L61.8833 51.0501ZM61.0773 49.6941L61.2922 49.5664L61.0773 49.6941ZM48.2588 39.089L48.0088 39.0918L48.0108 39.265L48.1736 39.324L48.2588 39.089ZM48.029 18.838L48.279 18.8351L48.2701 18.0495L47.8234 18.6958L48.029 18.838ZM34.6817 38.1499L34.734 38.3943L34.831 38.3736L34.8874 38.292L34.6817 38.1499ZM30.4124 39.4765L30.3171 39.2454L30.3171 39.2454L30.4124 39.4765ZM18.0177 73.9205L17.797 74.0378L17.797 74.0378L18.0177 73.9205ZM41.4295 117.952L41.2088 118.069L41.3261 118.29L41.5469 118.172L41.4295 117.952ZM94.4458 59.0535L94.2375 59.1918L94.4458 59.0535ZM91.6479 55.566L91.398 55.5688L91.3991 55.668L91.4679 55.7394L91.6479 55.566ZM80.0725 48.8947L91.5872 32.2343L91.1759 31.95L79.6612 48.6104L80.0725 48.8947ZM63.4166 50.6027C68.7014 48.1075 74.4818 47.6601 79.806 48.995L79.9276 48.5101C74.495 47.1479 68.5959 47.6045 63.2031 50.1506L63.4166 50.6027ZM61.9901 51.2762L63.4166 50.6027L63.2031 50.1506L61.7766 50.8241L61.9901 51.2762ZM60.8624 49.8218L61.6684 51.1779L62.0982 50.9224L61.2922 49.5664L60.8624 49.8218ZM48.1736 39.324C53.3342 41.1945 57.8763 44.7979 60.8624 49.8218L61.2922 49.5664C58.2451 44.4398 53.6097 40.7626 48.344 38.854L48.1736 39.324ZM48.5088 39.0862L48.279 18.8351L47.7791 18.8408L48.0088 39.0918L48.5088 39.0862ZM47.8234 18.6958L34.476 38.0077L34.8874 38.292L48.2347 18.9801L47.8234 18.6958ZM30.5078 39.7076C31.896 39.1349 33.31 38.699 34.734 38.3943L34.6294 37.9054C33.1762 38.2163 31.7333 38.6612 30.3171 39.2454L30.5078 39.7076ZM18.2385 73.8031C11.4548 61.0449 17.1502 45.218 30.5078 39.7076L30.3171 39.2454C16.6864 44.8684 10.8747 61.0188 17.797 74.0378L18.2385 73.8031ZM41.6502 117.834L18.2385 73.8031L17.797 74.0378L41.2088 118.069L41.6502 117.834ZM85.3432 94.3191L41.3121 117.731L41.5469 118.172L85.578 94.7606L85.3432 94.3191ZM94.2375 59.1918C102.23 71.2295 98.1014 87.5355 85.3432 94.3191L85.578 94.7606C98.597 87.8383 102.81 71.199 94.6541 58.9152L94.2375 59.1918ZM91.4679 55.7394C92.4782 56.7883 93.4068 57.9406 94.2375 59.1918L94.6541 58.9152C93.8066 57.6388 92.8591 56.463 91.828 55.3926L91.4679 55.7394ZM91.1316 32.095L91.398 55.5688L91.8979 55.5632L91.6316 32.0893L91.1316 32.095Z" fill="white"/>
<defs>
<filter id="filter0_f_29_733" x="2.6167" y="0.952881" width="108.459" height="130.38" filterUnits="userSpaceOnUse" color-interpolation-filters="sRGB">
<feFlood flood-opacity="0" result="BackgroundImageFix"/>
<feBlend mode="normal" in="SourceGraphic" in2="BackgroundImageFix" result="shape"/>
<feGaussianBlur stdDeviation="5" result="effect1_foregroundBlur_29_733"/>
</filter>
</defs>
</svg>
