<svg width="345" height="70" viewBox="0 0 345 70" fill="none" xmlns="http://www.w3.org/2000/svg">
<g style="mix-blend-mode:luminosity">
<path fill-rule="evenodd" clip-rule="evenodd" d="M8.66719 35L52.2145 9.9697V0L0 29.9091V39.8788L52.2145 70L78.2161 54.9394V44.9697L52.2145 60.0303L8.66719 35ZM69.5489 29.9091L43.5474 44.9697L52.2145 50.0606L69.5489 40.0909V29.9091ZM60.8817 15.0606L26.213 35L34.8802 40.0909L60.8817 25.0303V15.0606Z" fill="white"/>
<path d="M133.568 43.4013V49.7985H106.518V15.1299H132.944V21.5271H114.633V28.9561H130.863V35.1469H114.633V43.195H133.568V43.4013Z" fill="white"/>
<path d="M178.299 15.1294L163.109 49.798H155.202L140.013 15.1294H148.752L159.364 39.8927L170.184 15.1294H178.299Z" fill="white"/>
<path d="M213.244 43.4009V49.798H186.193V15.1294H212.619V21.5266H194.308V28.9556H210.539V35.1464H194.308V43.1945H213.244V43.4009Z" fill="white"/>
<path d="M246.955 49.798L240.296 40.0991H239.88H232.805V49.798H224.69V15.1294H239.88C243.001 15.1294 245.706 15.5421 247.995 16.5739C250.284 17.6057 251.949 19.0503 253.197 20.9075C254.446 22.7648 255.07 25.0347 255.07 27.5111C255.07 29.9874 254.446 32.2574 253.197 34.1146C251.949 35.9719 250.076 37.4164 247.787 38.4482L255.694 49.5917H246.955V49.798ZM244.874 23.1775C243.626 22.1457 241.753 21.5266 239.256 21.5266H232.597V33.7019H239.256C241.753 33.7019 243.626 33.0828 244.874 32.051C246.123 31.0192 246.747 29.5747 246.747 27.5111C246.747 25.8602 246.123 24.2093 244.874 23.1775Z" fill="white"/>
<path d="M289.377 42.369H273.147L270.026 49.798H261.703L277.309 15.1294H285.216L300.821 49.798H292.29L289.377 42.369ZM286.672 36.3846L281.054 23.1775L275.436 36.3846H286.672Z" fill="white"/>
<path d="M309.571 15.1294H325.385C329.131 15.1294 332.46 15.7485 335.373 17.1931C338.286 18.6376 340.575 20.7013 342.239 23.1777C343.904 25.8605 344.736 28.7497 344.736 32.2579C344.736 35.7662 343.904 38.8617 342.239 41.3381C340.575 44.0209 338.286 45.8782 335.373 47.3228C332.46 48.7673 329.131 49.3864 325.385 49.3864H309.571V15.1294ZM324.969 43.1954C328.506 43.1954 331.211 42.1636 333.292 40.3063C335.373 38.4489 336.413 35.7662 336.413 32.4643C336.413 29.1624 335.373 26.4796 333.292 24.6223C331.211 22.765 328.506 21.7332 324.969 21.7332H317.478V43.1954H324.969Z" fill="white"/>
</g>
</svg>
