<svg width="210" height="76" viewBox="0 0 210 76" fill="none" xmlns="http://www.w3.org/2000/svg">
<g style="mix-blend-mode:luminosity">
<path d="M42.4928 26.2267L41.1841 30.7685C36.9502 27.112 31.5231 24.8795 25.2878 24.8795C10.8156 24.8795 0 35.7722 0 50.3214C0 64.8705 10.8156 75.8786 25.2878 75.8786C31.4462 75.8786 36.7963 73.7232 40.9147 70.0666L42.0694 74.4545H52.2307V26.2267H42.4928ZM26.327 63.5234C18.7445 63.5234 13.202 57.8269 13.202 50.3214C13.202 42.7389 18.7445 37.1194 26.327 37.1194C33.9095 37.1194 39.4521 42.7389 39.4521 50.3214C39.4521 57.9039 33.948 63.5234 26.327 63.5234ZM99.0727 74.416L82.5607 49.0512L98.1106 26.1883H83.8308L74.8241 40.1985L66.5104 26.1883H51.7688L67.0493 49.6671L50.691 74.416H65.0478L74.7857 58.5196L84.3311 74.416H99.0727ZM142.258 50.2444C142.258 36.311 132.097 24.8795 117.24 24.8795C102.96 24.8795 92.2216 35.8492 92.2216 50.3214C92.2216 64.7935 103.037 75.8786 117.24 75.8786C128.479 75.8786 137.678 69.1814 141.18 58.6351H127.517C125.554 62.0992 121.821 64.2546 117.24 64.2546C110.889 64.2546 106.617 60.5982 105.462 53.9778H141.989C142.143 52.7462 142.258 51.476 142.258 50.2444ZM117.24 36.0417C123.129 36.0417 127.325 39.2748 129.21 45.1637H105.808C107.31 39.4287 111.428 36.0417 117.24 36.0417ZM143.49 74.416H156.538V8.86786H143.49V74.416ZM200.301 26.2267L198.954 30.7685C194.758 27.112 189.293 24.8795 183.057 24.8795C168.586 24.8795 157.77 35.7722 157.77 50.3214C157.77 64.8705 168.586 75.8786 183.057 75.8786C189.216 75.8786 194.566 73.7232 198.685 70.0666L199.839 74.4545H210V26.2267H200.301ZM184.135 63.5234C176.553 63.5234 171.01 57.8269 171.01 50.3214C171.01 42.7389 176.553 37.1194 184.135 37.1194C191.718 37.1194 197.26 42.7389 197.26 50.3214C197.26 57.9039 191.718 63.5234 184.135 63.5234Z" fill="white"/>
<path d="M36.5651 0L46.5725 3.35594e-05L49.5609 4.79427L36.5073 21.0316L33.486 16.3581L36.5651 0Z" fill="#FFFC52"/>
<path d="M33.486 16.3582L46.5726 0L49.6677 4.81123L36.4118 21.1694L33.486 16.3582Z" fill="#F19422"/>
</g>
</svg>
