<svg width="253" height="78" viewBox="0 0 253 78" fill="none" xmlns="http://www.w3.org/2000/svg">
<g filter="url(#filter0_d_39_206)">
<path fill-rule="evenodd" clip-rule="evenodd" d="M141.161 51.8532H139.308L138.634 55.3091H140.552C141.513 55.3091 142.567 54.8944 142.771 53.5811C142.797 53.3579 142.775 53.1316 142.705 52.918C142.635 52.7044 142.519 52.5085 142.366 52.3441C142.213 52.1797 142.026 52.0506 141.817 51.9658C141.609 51.881 141.385 51.8426 141.161 51.8532Z" fill="white"/>
<path fill-rule="evenodd" clip-rule="evenodd" d="M125.647 52.8661L123.701 55.3164H126.155L126.874 51.8605C126.39 52.0925 125.969 52.4374 125.647 52.8661Z" fill="white"/>
<path fill-rule="evenodd" clip-rule="evenodd" d="M109.01 51.8538H107.147L106.456 55.3098H108.378C109.338 55.3098 110.392 54.895 110.596 53.5818C110.622 53.3606 110.6 53.1365 110.532 52.9247C110.463 52.7128 110.35 52.5183 110.199 52.3543C110.049 52.1902 109.864 52.0606 109.659 51.9743C109.454 51.8879 109.233 51.8468 109.01 51.8538Z" fill="white"/>
<path fill-rule="evenodd" clip-rule="evenodd" d="M237.626 41.4512H95.6277C94.3448 41.4946 93.1123 41.9607 92.1217 42.7769C91.1311 43.5932 90.4379 44.7138 90.15 45.9647L86.5108 64.6649C86.027 67.1497 87.6997 69.1784 90.2295 69.1784H232.228C233.511 69.1355 234.744 68.6696 235.734 67.8533C236.725 67.037 237.418 65.916 237.706 64.6649L241.345 45.9647C241.829 43.4833 240.156 41.4512 237.626 41.4512ZM105.805 58.7828L105.114 62.2388H100.528L103.231 48.3839H110.44C113.322 48.3839 115.71 50.6993 115.278 53.5678C114.667 57.518 111.511 58.7517 108.632 58.7517L105.805 58.7828ZM129.119 62.2388H124.703L125.418 58.7828H120.97L118.237 62.2388H112.945L121.744 51.159C122.681 49.9736 123.362 48.3942 126.825 48.3942H132.029L129.119 62.2388ZM147.415 53.5782C147.014 56.1701 145.521 57.5974 143.724 58.2714L146.088 62.2388H141.222L139.149 58.7828H137.946L137.272 62.2388H132.679L135.382 48.3839H142.594C145.473 48.3908 147.861 50.7063 147.415 53.5851V53.5782ZM163.479 51.8502H159.293L157.268 62.2422H152.665L154.69 51.8502H150.619L151.31 48.3942H164.17L163.479 51.8502ZM178.598 62.2181H174.755L170.774 55.7796L169.485 62.2181H164.93L167.695 48.3942H171.534L175.516 54.8327L176.805 48.3942H181.36L178.598 62.2181ZM195.533 51.8502H188.749L188.403 53.5782H194.465L193.774 57.0341H187.708L187.363 58.7621H194.275L193.583 62.2181H182.141L184.836 48.3631H196.217L195.533 51.8502ZM211.686 53.5782C211.285 56.1701 209.788 57.5974 207.995 58.2714L210.359 62.2388H205.493L203.419 58.7828H202.216L201.525 62.2388H196.922L199.624 48.3839H206.837C209.761 48.3908 212.149 50.7063 211.703 53.5851L211.686 53.5782ZM219.344 53.1289C219.862 53.3338 220.396 53.4933 220.941 53.6058C221.712 53.7785 222.471 54.0037 223.211 54.2797C223.823 54.5183 224.369 54.8985 224.805 55.3891C225.278 55.939 225.525 56.6479 225.496 57.3728C225.514 58.3465 225.216 59.2998 224.646 60.0892C224.018 60.9101 223.173 61.5387 222.206 61.9036C221.017 62.3557 219.752 62.574 218.48 62.5464C217.337 62.5542 216.198 62.4242 215.086 62.1593C214.166 61.9515 213.283 61.6017 212.47 61.1225L214.274 57.6666C215.691 58.5054 217.307 58.9504 218.954 58.9556C219.425 58.9797 219.895 58.9055 220.336 58.7379C220.654 58.5927 220.813 58.3923 220.813 58.1435C220.813 57.8947 220.651 57.7149 220.326 57.5698C219.828 57.3696 219.315 57.2101 218.791 57.0929C218.009 56.9013 217.241 56.6601 216.49 56.3706C215.877 56.1223 215.331 55.7355 214.893 55.2405C214.416 54.6802 214.17 53.9604 214.202 53.2257C214.183 52.2445 214.479 51.2831 215.045 50.4816C215.659 49.6536 216.499 49.0201 217.464 48.6569C218.66 48.2036 219.932 47.9854 221.21 48.0141C222.181 48.0068 223.149 48.1088 224.096 48.3182C224.906 48.4933 225.685 48.7916 226.405 49.2029L224.722 52.6139C224.167 52.2645 223.562 52.0033 222.928 51.8398C222.27 51.6668 221.593 51.5797 220.913 51.5806C220.396 51.5547 219.88 51.6506 219.406 51.8606C219.061 52.0437 218.871 52.2614 218.871 52.5137C218.871 52.766 219.037 52.9906 219.361 53.1358L219.344 53.1289Z" fill="white"/>
<path fill-rule="evenodd" clip-rule="evenodd" d="M205.447 51.8537H203.595L202.904 55.3096H204.825C205.786 55.3096 206.84 54.8949 207.044 53.5816C207.07 53.3596 207.048 53.1346 206.979 52.922C206.91 52.7094 206.795 52.5143 206.644 52.3501C206.492 52.1859 206.306 52.0565 206.1 51.9708C205.893 51.8851 205.671 51.8451 205.447 51.8537Z" fill="white"/>
<path d="M67.9286 0C63.8275 0 59.8184 1.21613 56.4085 3.4946C52.9985 5.77308 50.3407 9.01155 48.7713 12.8005C47.2018 16.5895 46.7912 20.7588 47.5913 24.7811C48.3914 28.8035 50.3663 32.4982 53.2662 35.3982C56.1662 38.2981 59.8609 40.273 63.8833 41.0731C67.9056 41.8732 72.0749 41.4626 75.8639 39.8931C79.6529 38.3237 82.8913 35.6659 85.1698 32.2559C87.4483 28.846 88.6644 24.8369 88.6644 20.7358C88.6644 15.2363 86.4798 9.96208 82.591 6.07337C78.7023 2.18466 73.4281 0 67.9286 0ZM77.7194 33.2222L68.2673 27.5786L58.8118 33.2325L61.3209 22.5812L52.9782 15.424L63.9785 14.4805L68.2811 4.43744L72.5873 14.477L83.5842 15.4067L75.238 22.5743L77.7194 33.2222Z" fill="white"/>
<path fill-rule="evenodd" clip-rule="evenodd" d="M247.659 13.8241H239.337L235.304 34.5599H226.153L230.182 13.8241H222.085L223.426 6.91221H249L247.659 13.8241ZM201.667 13.8241L200.976 17.2801H213.072L211.724 24.192H199.628L198.937 27.648H212.695L211.347 34.5599H188.441L193.815 6.91221H216.497L215.149 13.8241H201.667ZM179.086 20.3905C180.177 20.8445 181.124 21.5862 181.826 22.5366C182.484 23.4914 182.821 24.63 182.791 25.7887C182.791 28.7009 181.589 30.8897 179.186 32.355C176.783 33.8203 173.69 34.5553 169.907 34.5599H154.009L159.539 6.98132H174.154C177.38 6.98132 179.836 7.55731 181.522 8.7093C182.329 9.23157 182.985 9.95504 183.427 10.8083C183.869 11.6616 184.081 12.6152 184.042 13.5753C184.069 15.0407 183.613 16.4741 182.742 17.6533C181.793 18.8762 180.529 19.8176 179.086 20.3766V20.3905ZM164.388 27.648H169.917C170.406 27.6316 170.875 27.4527 171.251 27.1398C171.626 26.8268 171.887 26.3976 171.991 25.92C172.045 25.7121 172.049 25.4945 172.004 25.2845C171.959 25.0745 171.866 24.8778 171.732 24.7101C171.598 24.5424 171.426 24.4083 171.231 24.3184C171.036 24.2284 170.823 24.1852 170.608 24.192H165.079L164.388 27.648ZM171.915 13.8241H167.076L166.385 17.2801H171.224C171.712 17.2631 172.181 17.0841 172.556 16.7712C172.932 16.4583 173.192 16.0294 173.297 15.5521C173.351 15.3442 173.356 15.1266 173.311 14.9166C173.266 14.7066 173.173 14.5099 173.038 14.3422C172.904 14.1745 172.733 14.0404 172.538 13.9505C172.343 13.8606 172.129 13.8173 171.915 13.8241ZM142.916 13.8241L138.886 34.5599H129.731L133.761 13.8241H125.664L127.005 6.91221H152.579L151.238 13.8241H142.916ZM113.077 13.9555C111.772 13.6132 110.428 13.4413 109.079 13.444C107.789 13.444 106.794 13.6271 106.082 13.9935C105.37 14.3598 105.021 14.7953 105.021 15.2929C105.021 15.7906 105.343 16.188 105.985 16.4749C107.013 16.8829 108.075 17.1997 109.158 17.4218C110.684 17.768 112.185 18.216 113.651 18.7627C114.87 19.2326 115.958 19.9889 116.823 20.9676C117.715 21.9652 118.161 23.2785 118.161 24.9074C118.197 26.8429 117.603 28.7376 116.467 30.3056C115.227 31.9391 113.549 33.1887 111.629 33.9102C109.266 34.8099 106.751 35.2441 104.223 35.1889C101.954 35.203 99.6915 34.9454 97.4838 34.4217C95.6556 34.0181 93.9011 33.3338 92.2825 32.393L95.8698 25.5364C98.6848 27.2039 101.895 28.0881 105.166 28.0973C106.093 28.1423 107.019 27.9953 107.886 27.6653C108.515 27.375 108.83 26.981 108.83 26.4833C108.83 25.9857 108.508 25.6043 107.865 25.3394C106.875 24.9429 105.855 24.6274 104.814 24.3959C103.261 24.0132 101.734 23.5331 100.242 22.9583C99.0243 22.4654 97.9382 21.6964 97.0691 20.7119C96.1636 19.6981 95.7108 18.3653 95.7108 16.7133C95.6732 14.7621 96.2605 12.85 97.387 11.2563C98.6169 9.60707 100.297 8.34817 102.225 7.63104C104.327 6.77857 106.809 6.35235 109.673 6.35235C111.6 6.33983 113.522 6.54386 115.403 6.9606C117.015 7.30578 118.564 7.89796 119.996 8.71622L116.647 15.4899C115.543 14.798 114.339 14.2805 113.077 13.9555ZM28.8829 34.5599L31.3367 21.9076L22.2198 34.5599H19.4758L15.5637 22.1392L13.1445 34.5599H4L9.36366 6.91221H18.674L23.3085 21.6L33.8802 6.91221H43.3807L38.0136 34.5599H28.8829Z" fill="white"/>
</g>
<defs>
<filter id="filter0_d_39_206" x="0" y="0" width="253" height="77.1783" filterUnits="userSpaceOnUse" color-interpolation-filters="sRGB">
<feFlood flood-opacity="0" result="BackgroundImageFix"/>
<feColorMatrix in="SourceAlpha" type="matrix" values="0 0 0 0 0 0 0 0 0 0 0 0 0 0 0 0 0 0 127 0" result="hardAlpha"/>
<feOffset dy="4"/>
<feGaussianBlur stdDeviation="2"/>
<feComposite in2="hardAlpha" operator="out"/>
<feColorMatrix type="matrix" values="0 0 0 0 0 0 0 0 0 0 0 0 0 0 0 0 0 0 0.25 0"/>
<feBlend mode="normal" in2="BackgroundImageFix" result="effect1_dropShadow_39_206"/>
<feBlend mode="normal" in="SourceGraphic" in2="effect1_dropShadow_39_206" result="shape"/>
</filter>
</defs>
</svg>
