<svg width="250" height="55" viewBox="0 0 250 55" fill="none" xmlns="http://www.w3.org/2000/svg">
<path d="M18.4558 38.6511C13.0131 38.6511 7.15635 34.7159 3.39148 28.4927C-0.504125 22.0301 -1.08762 14.9192 1.86859 9.91744C7.66963 0.131556 17.2452 -1.76467 23.3102 1.4207C27.7626 3.76196 31.4985 9.64413 27.3704 18.5448C26.0872 21.3069 26.2712 24.5044 26.4504 27.5954C26.6465 31.0033 26.8329 34.2225 24.8815 36.3896C23.6419 37.7707 21.7171 38.506 18.9981 38.639C18.819 38.6462 18.6422 38.6511 18.4558 38.6511ZM17.3227 2.50668C12.8218 2.50668 7.63816 5.11882 4.03551 11.2138C1.06477 16.2205 2.8661 22.7484 5.5463 27.1842C8.95768 32.8463 14.197 36.3582 18.8843 36.1284C20.889 36.0389 22.24 35.5552 23.0003 34.7111C24.252 33.3204 24.1019 30.7348 23.93 27.7405C23.7411 24.4995 23.5305 20.8232 25.0776 17.4878C28.4672 10.2028 25.7725 5.56144 22.1287 3.64586C20.6426 2.88325 18.9934 2.49233 17.3227 2.50668Z" fill="white"/>
<path d="M27.2202 28.0582C24.8336 28.0859 22.4718 27.5724 20.3127 26.5562C17.0926 25.0106 13.0347 21.5278 11.9961 13.7349C11.599 10.7575 12.2382 8.31466 13.8628 6.47889C17.6252 2.23173 25.8256 2.33332 31.2514 2.3962C31.8785 2.3962 32.4619 2.41313 33.0091 2.41313C34.0212 2.41313 35.0647 2.38411 36.1711 2.35508C42.6114 2.17852 49.9232 1.99228 52.3298 7.62292C54.7679 13.3334 52.1143 16.9976 40.488 23.9585C35.9556 26.6747 31.3773 28.0582 27.2202 28.0582ZM28.99 4.88742C24.2277 4.88742 18.3225 5.22845 15.7464 8.13326C14.6012 9.43449 14.1896 11.1517 14.4898 13.4035C15.1944 18.6907 17.5865 22.459 21.4046 24.2875C26.1355 26.5658 32.784 25.6322 39.1951 21.7938C51.417 14.475 51.4364 11.9257 50.0152 8.60006C48.2792 4.53913 42.1586 4.70118 36.2389 4.85839C35.1664 4.88742 34.0599 4.91644 33.0115 4.91644C32.4595 4.91644 31.8591 4.91644 31.2223 4.90193C30.5202 4.90193 29.7793 4.89226 28.99 4.89226V4.88742Z" fill="white"/>
<path d="M38.4173 43.2206C35.0422 43.2206 31.9577 42.3813 29.476 40.7293C25.9944 38.4123 23.9534 34.6633 23.5757 29.8913C23.2343 25.5813 25.1228 21.5711 28.9022 18.601C34.7783 13.9717 44.2208 12.6439 52.4018 15.2996C57.0649 16.8136 59.6361 20.0208 59.641 24.3333C59.641 27.6396 58.0721 31.5118 55.3289 34.9584C52.6463 38.3276 49.1914 40.8865 45.8478 41.9725C43.4524 42.7776 40.9445 43.1988 38.4173 43.2206ZM43.6712 16.4484C38.6812 16.4484 33.8728 17.8779 30.4493 20.5747C28.2703 22.2967 25.733 25.2765 26.0913 29.693C26.406 33.6693 28.0621 36.7627 30.8779 38.642C34.4539 41.0244 39.623 41.3703 45.0633 39.5926C51.1549 37.6044 57.1278 30.0485 57.123 24.3405C57.123 21.114 55.2684 18.8792 51.6222 17.694C49.0531 16.8671 46.3703 16.4468 43.6712 16.4484Z" fill="white"/>
<path d="M40.2232 53.3905C39.6649 53.39 39.1074 53.3487 38.5551 53.2671C35.9711 52.8403 33.5606 51.6924 31.6016 49.956C30.7832 49.2691 29.8341 48.5653 28.8318 47.8203C23.8757 44.1367 17.7066 39.5558 18.3022 31.0131C18.7284 24.8939 21.9194 19.7833 26.8392 17.3428C31.5217 15.0185 37.1096 15.4539 41.7849 18.5062C47.3244 22.1221 51.3992 29.2378 52.1667 36.6316C52.7332 42.0905 51.3605 46.79 48.2929 49.8399C45.5013 52.6383 42.5669 53.3905 40.2232 53.3905ZM33.2019 18.3563C31.3815 18.3558 29.586 18.779 27.9577 19.5922C23.7861 21.6626 21.1786 25.8807 20.813 31.1872C20.3118 38.3585 25.6359 42.313 30.3329 45.8032C31.374 46.5771 32.3569 47.3076 33.2382 48.0477L33.277 48.0815C35.6691 50.2583 41.5089 53.0688 46.5206 48.0622C49.0362 45.5516 50.1523 41.5826 49.6681 36.8904C48.9853 30.3214 45.2665 23.7789 40.4145 20.6104C38.2809 19.1707 35.7717 18.387 33.1971 18.3563H33.2019Z" fill="white"/>
<path d="M19.7847 54.5489C17.0162 54.587 14.2901 53.8676 11.9015 52.4689C7.90176 50.0865 5.18766 45.6966 4.63806 40.7045C4.16836 36.4187 3.52676 30.5462 11.1751 26.478C17.1771 23.2854 26.6704 24.3012 33.3988 26.7199C35.6262 27.5229 40.9503 29.7408 42.2964 33.0084C42.848 34.3482 43.1238 35.7851 43.1076 37.2337C43.0914 38.6822 42.7834 40.1127 42.202 41.4398C40.328 45.9047 35.6335 49.7745 28.6243 52.6285C25.2298 54.0265 22.2882 54.5489 19.7847 54.5489ZM20.9396 26.9762C17.3248 26.9762 14.3323 27.6607 12.3663 28.708C6.64519 31.7386 6.58466 35.3134 7.14394 40.4337C7.60396 44.6373 9.86288 48.3306 13.1968 50.3114C17.0488 52.6043 22.0606 52.6043 27.6897 50.3114C35.7448 47.0317 38.7737 43.1522 39.8971 40.4772C40.3479 39.4545 40.588 38.3516 40.603 37.2342C40.618 36.1168 40.4075 35.0078 39.9842 33.9734C39.3257 32.3723 36.4809 30.5002 32.561 29.0902C28.8381 27.7202 24.9069 27.001 20.9396 26.9642V26.9762Z" fill="white"/>
<path d="M106.874 19.6673V46.7103H99.3689V43.5951C97.4223 45.938 94.6041 47.1102 90.9143 47.1118C88.4918 47.1437 86.1014 46.5559 83.9705 45.4043C81.9296 44.2701 80.2542 42.5788 79.1403 40.5282C77.9652 38.4176 77.3785 35.9715 77.3801 33.19C77.3817 30.4086 77.9685 27.9617 79.1403 25.8494C80.2549 23.8 81.9302 22.1096 83.9705 20.9758C86.1012 19.8235 88.4916 19.2348 90.9143 19.2658C94.3684 19.2658 97.0688 20.355 99.0154 22.5334V19.6673H106.874ZM92.2822 40.6782C94.2627 40.6782 95.9067 40.0082 97.2141 38.6683C98.5215 37.2945 99.176 35.4684 99.1776 33.19C99.1792 30.9117 98.5247 29.1017 97.2141 27.7602C96.5846 27.0879 95.8195 26.5567 94.9694 26.2014C94.1193 25.8462 93.2034 25.6751 92.2822 25.6995C90.2711 25.6995 88.611 26.3864 87.302 27.7602C85.9945 29.1001 85.34 30.91 85.3384 33.19C85.3368 35.47 85.9913 37.2961 87.302 38.6683C88.6094 40.0082 90.2695 40.6782 92.2822 40.6782ZM121.781 20.272H128.725V26.3041H121.992V46.7103H114.143V19.0651C114.143 15.9821 115.048 13.536 116.859 11.7269C118.704 9.91772 121.287 9.01233 124.607 9.01072C125.727 9.0042 126.843 9.13992 127.929 9.41464C128.874 9.59819 129.777 9.95578 130.592 10.4692L128.527 16.1506C127.598 15.5055 126.488 15.171 125.357 15.1952C122.973 15.1952 121.781 16.4997 121.781 19.1086V20.272ZM140.305 20.272H147.249V26.3041H140.516V46.7103H132.676V19.0651C132.676 15.9821 133.582 13.536 135.393 11.7269C137.238 9.91772 139.82 9.01233 143.141 9.01072C144.261 9.00449 145.377 9.14021 146.462 9.41464C147.408 9.59836 148.311 9.95593 149.126 10.4692L147.058 16.1506C146.129 15.5059 145.02 15.1715 143.889 15.1952C141.506 15.1952 140.315 16.5021 140.315 19.1159L140.305 20.272ZM167.635 19.2658C170.991 19.2658 173.691 20.2712 175.736 22.2819C177.817 24.2926 178.856 27.2756 178.855 31.2309V46.7103H171.015V32.4403C171.015 30.2957 170.545 28.7042 169.606 27.6658C168.668 26.5919 167.31 26.0558 165.531 26.0574C163.552 26.0574 161.976 26.6774 160.803 27.9174C159.629 29.1219 159.042 30.931 159.04 33.3448V46.7152H151.191V9.41464H159.04V22.4947C160.109 21.4389 161.398 20.632 162.815 20.1317C164.357 19.5466 165.995 19.253 167.645 19.2658H167.635ZM213.245 19.6673V46.7103H205.807V43.4935C204.777 44.6541 203.506 45.5768 202.083 46.1976C200.6 46.8094 199.008 47.1171 197.403 47.1022C193.852 47.1022 191.035 46.0807 188.951 44.0377C186.867 41.9948 185.827 38.9618 185.83 34.9387V19.6673H193.689V33.7923C193.689 38.1459 195.517 40.3227 199.173 40.3227C201.052 40.3227 202.562 39.7196 203.703 38.5135C204.842 37.2735 205.412 35.4466 205.412 33.0328V19.6673H213.245ZM236.517 19.2658C238.913 19.2346 241.275 19.8415 243.359 21.0242C245.422 22.1465 247.116 23.8395 248.24 25.9002C249.415 27.9786 250.002 30.4086 250 33.19C249.998 35.9715 249.412 38.4176 248.24 40.5282C247.097 42.5744 245.407 44.2627 243.359 45.4043C241.265 46.5558 238.907 47.1442 236.517 47.1118C232.793 47.1118 229.959 45.9396 228.014 43.5951V46.7103H220.508V9.41464H228.357V22.5334C230.346 20.355 233.069 19.2658 236.526 19.2658H236.517ZM235.158 40.6782C237.17 40.6782 238.813 40.0082 240.088 38.6683C241.398 37.2945 242.053 35.4684 242.051 33.19C242.05 30.9117 241.395 29.1017 240.088 27.7602C238.814 26.3864 237.171 25.6995 235.158 25.6995C233.146 25.6995 231.485 26.3864 230.176 27.7602C228.901 29.1001 228.264 30.91 228.265 33.19C228.267 35.47 228.904 37.2961 230.176 38.6683C231.493 40.0082 233.157 40.6782 235.168 40.6782H235.158Z" fill="white"/>
</svg>
