<svg width="170" height="44" viewBox="0 0 170 44" fill="none" xmlns="http://www.w3.org/2000/svg">
<path d="M0.787354 15.8659V2.45336C0.787354 1.09884 1.88938 0 3.24787 0H16.6996C18.0581 0 19.1602 1.09884 19.1602 2.45336V15.8659C19.1602 17.2204 18.0581 18.3192 16.6996 18.3192H3.24787C1.88938 18.3192 0.787354 17.2204 0.787354 15.8659Z" fill="#A2C623"/>
<path d="M23.5801 40.7273V25.65C23.5801 24.2408 24.7252 23.099 26.1385 23.099H41.26C42.6733 23.099 43.8184 24.2408 43.8184 25.65V40.7273C43.8184 42.1365 42.6733 43.2783 41.26 43.2783H26.1385C24.7233 43.2763 23.5801 42.1365 23.5801 40.7273Z" fill="#3FAB35"/>
<path d="M10.1416 43.2798C15.7406 43.2798 20.2794 38.7542 20.2794 33.1716C20.2794 27.5891 15.7406 23.0635 10.1416 23.0635C4.5427 23.0635 0.00390625 27.5891 0.00390625 33.1716C0.00390625 38.7542 4.5427 43.2798 10.1416 43.2798Z" fill="#386EB5"/>
<path d="M23.3416 16.9684L32.3793 1.08883C32.8178 0.319836 33.8337 0.319836 34.2702 1.08883L43.3079 16.9703C43.7738 17.7881 43.2394 18.8518 42.3624 18.8518H24.287C23.4101 18.8499 22.8757 17.7861 23.3416 16.9684Z" fill="#E20E13"/>
<path opacity="0.1" d="M16.6914 18.3192C18.0557 18.3192 19.1617 17.2164 19.1617 15.856V2.44353C19.1617 1.7975 18.9111 1.21197 18.502 0.772827L1.56396 17.6614C2.0044 18.0674 2.59165 18.3192 3.23958 18.3192H16.6914Z" fill="#020203"/>
<path opacity="0.05" d="M0.787354 15.856C0.787354 17.2164 1.8933 18.3192 3.25767 18.3192H16.7094C17.3574 18.3192 17.9446 18.0693 18.3851 17.6614L1.44896 0.77478C1.0418 1.21393 0.789313 1.79946 0.789313 2.44549V15.856H0.787354Z" fill="#020203"/>
<path opacity="0.05" d="M23.6558 40.7955C23.6558 42.1793 24.7813 43.3016 26.1692 43.3016H41.461C42.0541 43.3016 42.5964 43.0928 43.0231 42.7453C43.0427 42.7297 43.0446 42.6985 43.027 42.679L24.2802 23.9889C24.2626 23.9714 24.2313 23.9714 24.2137 23.9928C23.8652 24.4183 23.6558 24.9589 23.6558 25.5503V40.7955Z" fill="#020203"/>
<path opacity="0.05" d="M41.3461 43.2759C42.7105 43.2759 43.8164 42.1732 43.8164 40.8128V25.5227C43.8164 24.9137 43.5933 24.3575 43.2272 23.9281L24.4688 42.583C24.8994 42.948 25.3672 43.2779 25.978 43.2779L41.3461 43.2759Z" fill="#020203"/>
<path opacity="0.05" d="M2.95579 26.0247C-0.990486 29.9731 -0.9846 36.3631 2.9695 40.3057C6.92361 44.2483 13.3324 44.2522 17.2924 40.3194L2.95579 26.0247Z" fill="#020203"/>
<path opacity="0.1" d="M2.95581 40.3523C6.91579 44.2871 13.3246 44.2812 17.2787 40.3387C21.2328 36.3961 21.2367 30.006 17.2924 26.0576L2.95581 40.3523Z" fill="#020203"/>
<path opacity="0.1" d="M38.6619 8.80469L23.2703 18.1243C23.4406 18.5381 23.8125 18.8504 24.2862 18.8504H42.3615C43.2385 18.8504 43.7729 17.7867 43.307 16.9689L38.6619 8.80469Z" fill="#020203"/>
<path opacity="0.1" d="M27.9882 8.80615L43.3798 18.1258C43.2095 18.5396 42.8376 18.8519 42.3639 18.8519H24.2885C23.4116 18.8519 22.8772 17.7882 23.3431 16.9704L27.9882 8.80615Z" fill="#020203"/>
<path d="M74.4138 6.41492H73.9596C73.1649 6.41492 72.4308 6.8365 72.0335 7.52547L65.2508 19.2477L58.4681 7.52352C58.0708 6.8365 57.3367 6.41296 56.542 6.41296H56.0879C54.377 6.41296 53.3063 8.26128 54.1617 9.73877L62.7922 24.6307V36.2573C62.7922 37.4811 63.7886 38.4745 65.0159 38.4745H65.4857C66.713 38.4745 67.7094 37.4811 67.7094 36.2573V24.6327L76.3399 9.74072C77.1934 8.26323 76.1246 6.41492 74.4138 6.41492Z" fill="url(#paint0_linear_39_173)"/>
<path d="M95.8597 5.21301C86.2172 5.21301 79.1311 12.4228 79.1311 21.844C79.1311 31.2651 86.2191 38.4749 95.8597 38.4749C105.5 38.4749 112.588 31.2651 112.588 21.844C112.588 12.4228 105.502 5.21301 95.8597 5.21301ZM95.8597 33.9566C88.9655 33.9566 84.0483 28.9581 84.0483 21.844C84.0483 14.7318 88.9655 9.73134 95.8597 9.73134C102.754 9.73134 107.671 14.7298 107.671 21.844C107.671 28.9581 102.754 33.9566 95.8597 33.9566Z" fill="url(#paint1_linear_39_173)"/>
<path d="M129.893 18.768L126.663 17.4701C123.529 16.2209 123.193 14.5385 123.193 13.5783C123.193 11.5113 124.735 9.73329 127.724 9.73329C129.122 9.73329 130.183 10.0709 131.195 10.8868C131.375 11.0429 131.537 11.203 131.684 11.365C132.401 12.1574 133.563 12.3662 134.487 11.8275L134.579 11.7729C135.769 11.0781 136.045 9.48152 135.157 8.42952C134.82 8.03136 134.473 7.67809 134.133 7.37752C133.121 6.51289 131.144 5.21497 127.673 5.21497C121.648 5.21497 118.273 9.3488 118.273 13.6739C118.273 18.4811 122.179 20.6924 124.829 21.7971L127.914 23.095C130.036 23.9597 132.541 25.3064 132.541 28.5736C132.541 31.794 130.228 33.9566 127.239 33.9566C125.311 33.9566 123.96 33.1876 123.044 32.0341C122.615 31.472 122.247 30.7655 122.002 29.9711C121.664 28.8703 120.558 28.193 119.428 28.439L118.933 28.5463C117.651 28.8235 116.897 30.139 117.287 31.3881C117.71 32.7367 118.422 34.0347 119.522 35.2545C121.161 37.0814 123.379 38.4749 127.092 38.4749C133.117 38.4749 137.457 34.2923 137.457 28.1891C137.463 24.5374 135.822 21.1726 129.893 18.768Z" fill="url(#paint2_linear_39_173)"/>
<path d="M157.951 8.95036C157.174 7.2211 154.719 7.19768 153.911 8.91133L141.457 35.3147C140.764 36.7864 141.841 38.4746 143.47 38.4746H143.836C144.709 38.4746 145.5 37.9652 145.862 37.1728L148.788 30.7359H162.526L165.319 37.1416C165.671 37.9496 166.472 38.4746 167.359 38.4746H167.774C169.385 38.4746 170.461 36.8196 169.804 35.3518L157.951 8.95036ZM150.814 26.122L155.778 15.2604L160.551 26.122H150.814Z" fill="url(#paint3_linear_39_173)"/>
<defs>
<linearGradient id="paint0_linear_39_173" x1="41.4214" y1="8.06956" x2="168.672" y2="73.0969" gradientUnits="userSpaceOnUse">
<stop stop-color="#C81617"/>
<stop offset="0.3324" stop-color="#CED71A"/>
<stop offset="0.6927" stop-color="#3FAB35"/>
<stop offset="1" stop-color="#396EB5"/>
</linearGradient>
<linearGradient id="paint1_linear_39_173" x1="47.053" y1="-2.95113" x2="174.304" y2="62.0765" gradientUnits="userSpaceOnUse">
<stop stop-color="#C81617"/>
<stop offset="0.3324" stop-color="#CED71A"/>
<stop offset="0.6927" stop-color="#3FAB35"/>
<stop offset="1" stop-color="#396EB5"/>
</linearGradient>
<linearGradient id="paint2_linear_39_173" x1="53.5489" y1="-15.6608" x2="180.799" y2="49.3661" gradientUnits="userSpaceOnUse">
<stop stop-color="#C81617"/>
<stop offset="0.3324" stop-color="#CED71A"/>
<stop offset="0.6927" stop-color="#3FAB35"/>
<stop offset="1" stop-color="#396EB5"/>
</linearGradient>
<linearGradient id="paint3_linear_39_173" x1="57.658" y1="-23.703" x2="184.908" y2="41.3241" gradientUnits="userSpaceOnUse">
<stop stop-color="#C81617"/>
<stop offset="0.3324" stop-color="#CED71A"/>
<stop offset="0.6927" stop-color="#3FAB35"/>
<stop offset="1" stop-color="#396EB5"/>
</linearGradient>
</defs>
</svg>
